<?xml version="1.0" encoding="iso-8859-1"?>
<!-- Generator: Adobe Illustrator 19.0.0, SVG Export Plug-In . SVG Version: 6.00 Build 0)  -->
<svg version="1.1" id="Layer_1" xmlns="http://www.w3.org/2000/svg" xmlns:xlink="http://www.w3.org/1999/xlink" x="0px" y="0px"
	 viewBox="0 0 512.001 512.001" style="enable-background:new 0 0 512.001 512.001;" xml:space="preserve">
<path style="fill:#FCDE65;" d="M328.714,5.693c23.257,6.828,106.469,60.306,122.342,78.624
	c15.872,18.318,56.964,108.295,60.413,132.286s-10.627,121.9-20.696,143.948c-10.069,22.047-74.844,96.803-95.235,109.907
	c-20.39,13.104-115.299,40.971-139.537,40.971s-119.147-27.868-139.537-40.971c-20.39-13.104-85.166-87.859-95.235-109.907
	C11.16,338.503-2.918,240.594,0.532,216.603S45.073,102.635,60.945,84.317S160.03,12.521,183.287,5.693S305.458-1.135,328.714,5.693
	z"/>
<path style="fill:#FBCD18;" d="M477.751,221.439c-0.856-5.604-8.504-27.622-22.815-58.956
	c-14.311-31.335-25.942-51.534-29.631-55.868c-3.75-4.251-22.087-18.639-51.067-37.262s-49.685-29.328-55.131-30.98
	c-5.455-1.549-28.659-3.739-63.107-3.739s-57.653,2.19-63.107,3.739c-5.447,1.652-26.151,12.356-55.131,30.98
	s-47.315,33.011-51.065,37.262c-3.689,4.334-15.32,24.533-29.631,55.868s-21.959,53.353-22.815,58.956
	c-0.761,5.641,0.375,28.921,5.276,63.018c4.903,34.098,10.373,56.755,12.683,61.932c2.409,5.156,15.951,24.128,38.51,50.161
	c22.557,26.034,39.409,42.137,44.152,45.245c4.815,3.034,26.463,11.673,59.516,21.379c33.03,9.699,55.903,14.136,61.614,14.193
	c5.71-0.057,28.584-4.494,61.614-14.193c33.053-9.706,54.701-18.344,59.516-21.379c4.743-3.108,21.594-19.211,44.152-45.245
	c22.558-26.034,36.1-45.006,38.51-50.161c2.309-5.177,7.78-27.835,12.683-61.932C477.376,250.36,478.511,227.079,477.751,221.439z"
	/>
<g>
	<path style="fill:#FEF7D8;" d="M143.447,355.691H95.773c-4.704,0-8.516-3.813-8.516-8.516s3.812-8.516,8.516-8.516h47.675
		c4.704,0,8.516,3.813,8.516,8.516S148.151,355.691,143.447,355.691z"/>
	<path style="fill:#FEF7D8;" d="M112.724,164.825c-4.316,10.616-14.727,18.104-26.895,18.104v18.347h15.504v145.9h36.55V164.825
		H112.724z"/>
	<path style="fill:#FEF7D8;" d="M198.491,305.53c-8.949-7.196-19.617-21.022-19.617-46.016v-62.16c0-4.703-3.812-8.516-8.516-8.516
		s-8.516,3.813-8.516,8.516v62.161c0,31.737,14.125,49.758,25.975,59.288c13.422,10.794,28.522,14.466,38.513,16.897l4.025-16.549
		C220.82,316.832,208.954,313.945,198.491,305.53z"/>
	<path style="fill:#FEF7D8;" d="M341.637,188.839c-4.704,0-8.516,3.813-8.516,8.516v62.16c0,24.994-10.668,38.819-19.617,46.016
		c-10.463,8.415-22.329,11.301-31.864,13.619l4.025,16.549c9.992-2.431,25.092-6.103,38.513-16.896
		c11.85-9.53,25.975-27.551,25.975-59.288v-62.16C350.153,192.65,346.341,188.839,341.637,188.839z"/>
	<path style="fill:#FEF7D8;" d="M307.575,173.511H204.42v84.869c0,39.317,34.309,29.802,51.577,42.115
		c17.268-12.312,51.577-2.799,51.577-42.115V173.511z"/>
</g>
<g>
	<path style="fill:#FFE991;" d="M335.477,355.691h-21.775c-4.704,0-8.516-3.813-8.516-8.516v-5.607
		c-15.162-5.716-32.046-8.719-49.185-8.719s-34.024,3.003-49.185,8.719v5.607c0,4.703-3.812,8.516-8.516,8.516h-21.776
		c-4.704,0-8.516-3.813-8.516-8.516s3.812-8.516,8.516-8.516h13.26v-2.839c0-3.404,2.027-6.481,5.155-7.824
		c18.547-7.967,39.662-12.178,61.061-12.178s42.514,4.211,61.061,12.178c3.128,1.343,5.155,4.42,5.155,7.824v2.839h13.259
		c4.704,0,8.516,3.813,8.516,8.516S340.181,355.691,335.477,355.691z"/>
	<path style="fill:#FFE991;" d="M341.645,153.831c-0.176,0-0.354-0.005-0.533-0.016l-36.839-2.271c-4.491-0.277-7.991-4-7.991-8.5
		v-3.647l-15.04-1.504c-3.275-0.328-6.066-2.512-7.172-5.61c-1.107-3.099-0.328-6.558,1.998-8.885l1.647-1.647
		c-13.911-3.458-29.517-3.458-43.431,0l1.647,1.647c2.326,2.326,3.104,5.785,1.998,8.885c-1.107,3.099-3.899,5.283-7.172,5.61
		l-15.04,1.504v3.647c0,4.5-3.5,8.223-7.992,8.5l-36.844,2.271c-4.671,0.286-8.732-3.281-9.022-7.975
		c-0.29-4.694,3.281-8.734,7.975-9.023l28.852-1.778v-3.347c0-4.375,3.315-8.039,7.669-8.474l5.064-0.506
		c-1.19-1.828-1.645-4.066-1.225-6.252c0.534-2.774,2.406-5.103,5.001-6.218c12.406-5.328,26.515-8.145,40.804-8.145
		c14.289,0,28.399,2.817,40.805,8.145c2.596,1.115,4.469,3.444,5.001,6.218c0.42,2.186-0.035,4.424-1.225,6.252l5.064,0.506
		c4.353,0.435,7.669,4.099,7.669,8.474v3.347l28.847,1.778c4.694,0.29,8.264,4.329,7.974,9.023
		C349.858,150.354,346.11,153.831,341.645,153.831z"/>
	<rect x="236.212" y="205.306" style="fill:#FFE991;" width="39.571" height="47.52"/>
</g>
<g>
	<path style="fill:#FCDE65;" d="M380.739,389.254c-2.21,0-4.418-0.854-6.085-2.558c-3.29-3.36-3.235-8.752,0.126-12.042
		c32.891-32.207,51.005-75.293,51.005-121.319c0-93.619-76.165-169.784-169.784-169.784c-4.704,0-8.516-3.813-8.516-8.516
		s3.812-8.516,8.516-8.516c103.01,0,186.815,83.805,186.815,186.815c0,50.644-19.931,98.05-56.121,133.487
		C385.038,388.446,382.887,389.254,380.739,389.254z"/>
	<path style="fill:#FCDE65;" d="M334.818,409.905H177.177c-4.704,0-8.516-3.813-8.516-8.516s3.812-8.516,8.516-8.516h157.641
		c4.704,0,8.516,3.813,8.516,8.516S339.522,409.905,334.818,409.905z"/>
</g>
<g>
</g>
<g>
</g>
<g>
</g>
<g>
</g>
<g>
</g>
<g>
</g>
<g>
</g>
<g>
</g>
<g>
</g>
<g>
</g>
<g>
</g>
<g>
</g>
<g>
</g>
<g>
</g>
<g>
</g>
</svg>
